<svg xmlns="http://www.w3.org/2000/svg" viewBox="0 0 512 512" role="img" aria-label="crm llamados"><defs><linearGradient id="bg" x1="70" y1="50" x2="442" y2="462" gradientUnits="userSpaceOnUse"><stop offset="0" stop-color="#092657"/><stop offset=".55" stop-color="#061b3f"/><stop offset="1" stop-color="#041633"/></linearGradient><linearGradient id="ring" x1="96" y1="96" x2="416" y2="416" gradientUnits="userSpaceOnUse"><stop offset="0" stop-color="#6da6f2"/><stop offset=".38" stop-color="#dcecff"/><stop offset=".68" stop-color="#79a9e8"/><stop offset="1" stop-color="#2d63b3"/></linearGradient><linearGradient id="ring2" x1="416" y1="96" x2="96" y2="416" gradientUnits="userSpaceOnUse"><stop offset="0" stop-color="#2e66b8"/><stop offset=".45" stop-color="#81b1ee"/><stop offset="1" stop-color="#dcecff"/></linearGradient><filter id="soft" x="-20%" y="-20%" width="140%" height="140%"><feDropShadow dx="0" dy="8" stdDeviation="10" flood-color="#03132d" flood-opacity=".26"/></filter></defs><rect x="32" y="32" width="448" height="448" rx="112" fill="url(#bg)"/><g filter="url(#soft)" fill="none" stroke-linecap="round" stroke-linejoin="round"><circle cx="256" cy="256" r="150" stroke="#2e66b8" stroke-width="46" opacity=".92"/><path d="M256 106 C328 112 400 184 406 256" stroke="url(#ring)" stroke-width="44"/><path d="M406 256 C400 328 328 400 256 406" stroke="url(#ring2)" stroke-width="44"/><path d="M256 406 C184 400 112 328 106 256" stroke="url(#ring)" stroke-width="44"/><path d="M106 256 C112 184 184 112 256 106" stroke="url(#ring2)" stroke-width="44"/></g><path d="M256 162 C304 184 328 208 350 256 C328 304 304 328 256 350 C208 328 184 304 162 256 C184 208 208 184 256 162Z" fill="#061b3f" opacity=".92"/><g fill="#fffdf7" filter="url(#soft)"><circle cx="256" cy="96" r="32"/><circle cx="416" cy="256" r="32"/><circle cx="256" cy="416" r="32"/><circle cx="96" cy="256" r="32"/></g></svg>