<svg xmlns="http://www.w3.org/2000/svg" viewBox="0 0 900 260" role="img" aria-label="crm llamados"><defs><linearGradient id="bg" x1="20" y1="20" x2="230" y2="240" gradientUnits="userSpaceOnUse"><stop offset="0" stop-color="#092657"/><stop offset="1" stop-color="#041633"/></linearGradient><linearGradient id="r1" x1="46" y1="46" x2="214" y2="214" gradientUnits="userSpaceOnUse"><stop offset="0" stop-color="#6da6f2"/><stop offset=".42" stop-color="#dcecff"/><stop offset="1" stop-color="#2d63b3"/></linearGradient><linearGradient id="r2" x1="214" y1="46" x2="46" y2="214" gradientUnits="userSpaceOnUse"><stop offset="0" stop-color="#2e66b8"/><stop offset=".55" stop-color="#81b1ee"/><stop offset="1" stop-color="#dcecff"/></linearGradient></defs><rect x="20" y="20" width="220" height="220" rx="55" fill="url(#bg)"/><g fill="none" stroke-linecap="round" stroke-linejoin="round"><circle cx="130" cy="130" r="74" stroke="#2e66b8" stroke-width="23" opacity=".92"/><path d="M130 56 C166 59 201 94 204 130" stroke="url(#r1)" stroke-width="22"/><path d="M204 130 C201 166 166 201 130 204" stroke="url(#r2)" stroke-width="22"/><path d="M130 204 C94 201 59 166 56 130" stroke="url(#r1)" stroke-width="22"/><path d="M56 130 C59 94 94 59 130 56" stroke="url(#r2)" stroke-width="22"/></g><path d="M130 85 C154 96 166 108 177 130 C166 154 154 166 130 177 C106 166 94 154 83 130 C94 108 106 96 130 85Z" fill="#061b3f" opacity=".92"/><g fill="#fffdf7"><circle cx="130" cy="50" r="16"/><circle cx="210" cy="130" r="16"/><circle cx="130" cy="210" r="16"/><circle cx="50" cy="130" r="16"/></g><text x="300" y="153" font-family="Inter, Roboto, system-ui, -apple-system, Segoe UI, sans-serif" font-size="70" fill="#061b3f" letter-spacing="-3"><tspan font-weight="800">crm</tspan><tspan dx="28" font-weight="400">llamados</tspan></text></svg>